# MagicaVoxel @ Ephtracy

# group
o 

# material
mtllib MegaTank-0.mtl
usemtl palette

# normals
vn -1 0 0
vn 1 0 0
vn 0 0 1
vn 0 0 -1
vn 0 -1 0
vn 0 1 0

# texcoords
vt 0.818359 0.5
vt 0.822266 0.5
vt 0.845703 0.5
vt 0.849609 0.5
vt 0.853516 0.5
vt 0.908203 0.5
vt 0.912109 0.5
vt 0.916016 0.5
vt 0.919922 0.5

# verts
v -1 0.3 0.5
v -1 0.3 -0.5
v -1 0.4 0.5
v -1 0.4 -0.5
v -1 0.7 0.5
v -1 0.7 -0.5
v -0.9 0.2 0.5
v -0.9 0.2 -0.5
v -0.9 0.3 0.6
v -0.9 0.3 0.5
v -0.9 0.3 -0.5
v -0.9 0.3 -0.6
v -0.9 0.4 0.6
v -0.9 0.4 0.5
v -0.9 0.4 -0.5
v -0.9 0.4 -0.6
v -0.9 0.7 0.6
v -0.9 0.7 0.5
v -0.9 0.7 -0.5
v -0.9 0.7 -0.6
v -0.8 0.1 0.5
v -0.8 0.1 -0.5
v -0.8 0.2 0.5
v -0.8 0.2 -0.5
v -0.7 0.1 0.6
v -0.7 0.1 0.5
v -0.7 0.1 -0.5
v -0.7 0.1 -0.6
v -0.7 0.2 0.5
v -0.7 0.2 -0.5
v -0.7 0.3 0.6
v -0.7 0.3 0.5
v -0.7 0.3 -0.5
v -0.7 0.3 -0.6
v -0.2 0.1 0.6
v -0.2 0.1 0.5
v -0.2 0.1 -0.5
v -0.2 0.1 -0.6
v -0.2 0.2 0.5
v -0.2 0.2 -0.5
v -0.2 0.3 0.6
v -0.2 0.3 0.5
v -0.2 0.3 -0.5
v -0.2 0.3 -0.6
v 0.3 0.1 0.6
v 0.3 0.1 0.5
v 0.3 0.1 -0.5
v 0.3 0.1 -0.6
v 0.3 0.2 0.5
v 0.3 0.2 -0.5
v 0.3 0.3 0.6
v 0.3 0.3 0.5
v 0.3 0.3 -0.5
v 0.3 0.3 -0.6
v -0.4 0.1 0.6
v -0.4 0.1 0.5
v -0.4 0.1 -0.5
v -0.4 0.1 -0.6
v -0.4 0.2 0.6
v -0.4 0.2 0.5
v -0.4 0.2 -0.5
v -0.4 0.2 -0.6
v -0.4 0.3 0.6
v -0.4 0.3 0.5
v -0.4 0.3 -0.5
v -0.4 0.3 -0.6
v 0.1 0.1 0.6
v 0.1 0.1 0.5
v 0.1 0.1 -0.5
v 0.1 0.1 -0.6
v 0.1 0.2 0.6
v 0.1 0.2 0.5
v 0.1 0.2 -0.5
v 0.1 0.2 -0.6
v 0.1 0.3 0.6
v 0.1 0.3 0.5
v 0.1 0.3 -0.5
v 0.1 0.3 -0.6
v 0.6 0.1 0.6
v 0.6 0.1 0.5
v 0.6 0.1 -0.5
v 0.6 0.1 -0.6
v 0.6 0.2 0.6
v 0.6 0.2 0.5
v 0.6 0.2 -0.5
v 0.6 0.2 -0.6
v 0.6 0.3 0.6
v 0.6 0.3 0.5
v 0.6 0.3 -0.5
v 0.6 0.3 -0.6
v 0.7 0.1 0.5
v 0.7 0.1 -0.5
v 0.7 0.2 0.5
v 0.7 0.2 -0.5
v 0.8 0.2 0.5
v 0.8 0.2 -0.5
v 0.8 0.3 0.6
v 0.8 0.3 0.5
v 0.8 0.3 -0.4
v 0.8 0.3 -0.5
v 0.8 0.3 -0.6
v 0.8 0.4 0.6
v 0.8 0.4 0.5
v 0.8 0.4 -0.5
v 0.8 0.4 -0.6
v 0.8 0.6 0.6
v 0.8 0.6 0.5
v 0.8 0.6 -0.5
v 0.8 0.6 -0.6
v 0.8 0.7 0.6
v 0.8 0.7 0.5
v 0.8 0.7 -0.5
v 0.8 0.7 -0.6
v 0.9 0.3 0.5
v 0.9 0.3 -0.4
v 0.9 0.3 -0.5
v 0.9 0.4 0.5
v 0.9 0.4 -0.4
v 0.9 0.6 0.5
v 0.9 0.6 0.4
v 0.9 0.6 0.2
v 0.9 0.6 0.1
v 0.9 0.6 -0.4
v 0.9 0.6 -0.5
v 0.9 0.7 0.5
v 0.9 0.7 0.4
v 0.9 0.7 0.2
v 0.9 0.7 0.1
v 0.9 0.7 -0.4
v 0.9 0.7 -0.5
v -0.9 0.3 0.6
v -0.9 0.4 0.6
v -0.9 0.7 0.6
v -0.7 0.1 0.6
v -0.7 0.3 0.6
v -0.7 0.6 0.6
v -0.7 0.7 0.6
v -0.6 0.2 0.6
v -0.6 0.3 0.6
v -0.5 0.1 0.6
v -0.5 0.2 0.6
v -0.5 0.6 0.6
v -0.5 0.7 0.6
v -0.4 0.1 0.6
v -0.4 0.2 0.6
v -0.4 0.3 0.6
v -0.4 0.6 0.6
v -0.4 0.7 0.6
v -0.2 0.1 0.6
v -0.2 0.3 0.6
v -0.1 0.2 0.6
v -0.1 0.3 0.6
v 0 0.1 0.6
v 0 0.2 0.6
v 0.1 0.1 0.6
v 0.1 0.2 0.6
v 0.1 0.3 0.6
v 0.3 0.1 0.6
v 0.3 0.3 0.6
v 0.3 0.6 0.6
v 0.3 0.7 0.6
v 0.4 0.2 0.6
v 0.4 0.3 0.6
v 0.4 0.6 0.6
v 0.4 0.7 0.6
v 0.5 0.1 0.6
v 0.5 0.2 0.6
v 0.5 0.6 0.6
v 0.5 0.7 0.6
v 0.6 0.1 0.6
v 0.6 0.2 0.6
v 0.6 0.3 0.6
v 0.8 0.3 0.6
v 0.8 0.4 0.6
v 0.8 0.6 0.6
v 0.8 0.7 0.6
v -1 0.3 0.5
v -1 0.4 0.5
v -1 0.7 0.5
v -0.9 0.2 0.5
v -0.9 0.3 0.5
v -0.9 0.4 0.5
v -0.9 0.7 0.5
v -0.8 0.1 0.5
v -0.8 0.2 0.5
v -0.7 0.1 0.5
v -0.7 0.2 0.5
v -0.7 0.3 0.5
v -0.4 0.1 0.5
v -0.4 0.2 0.5
v -0.4 0.3 0.5
v -0.2 0.1 0.5
v -0.2 0.2 0.5
v -0.2 0.3 0.5
v 0.1 0.1 0.5
v 0.1 0.2 0.5
v 0.1 0.3 0.5
v 0.3 0.1 0.5
v 0.3 0.2 0.5
v 0.3 0.3 0.5
v 0.6 0.1 0.5
v 0.6 0.2 0.5
v 0.6 0.3 0.5
v 0.7 0.1 0.5
v 0.7 0.2 0.5
v 0.8 0.2 0.5
v 0.8 0.3 0.5
v 0.8 0.4 0.5
v 0.8 0.6 0.5
v 0.8 0.7 0.5
v 0.9 0.3 0.5
v 0.9 0.4 0.5
v 0.9 0.6 0.5
v 0.9 0.7 0.5
v -1 0.3 -0.5
v -1 0.4 -0.5
v -1 0.7 -0.5
v -0.9 0.2 -0.5
v -0.9 0.3 -0.5
v -0.9 0.4 -0.5
v -0.9 0.7 -0.5
v -0.8 0.1 -0.5
v -0.8 0.2 -0.5
v -0.7 0.1 -0.5
v -0.7 0.2 -0.5
v -0.7 0.3 -0.5
v -0.4 0.1 -0.5
v -0.4 0.2 -0.5
v -0.4 0.3 -0.5
v -0.2 0.1 -0.5
v -0.2 0.2 -0.5
v -0.2 0.3 -0.5
v 0.1 0.1 -0.5
v 0.1 0.2 -0.5
v 0.1 0.3 -0.5
v 0.3 0.1 -0.5
v 0.3 0.2 -0.5
v 0.3 0.3 -0.5
v 0.6 0.1 -0.5
v 0.6 0.2 -0.5
v 0.6 0.3 -0.5
v 0.7 0.1 -0.5
v 0.7 0.2 -0.5
v 0.8 0.2 -0.5
v 0.8 0.3 -0.5
v 0.8 0.4 -0.5
v 0.8 0.6 -0.5
v 0.8 0.7 -0.5
v 0.9 0.3 -0.5
v 0.9 0.6 -0.5
v 0.9 0.7 -0.5
v -0.9 0.3 -0.6
v -0.9 0.4 -0.6
v -0.9 0.7 -0.6
v -0.7 0.1 -0.6
v -0.7 0.3 -0.6
v -0.6 0.2 -0.6
v -0.6 0.3 -0.6
v -0.6 0.6 -0.6
v -0.6 0.7 -0.6
v -0.5 0.1 -0.6
v -0.5 0.2 -0.6
v -0.4 0.1 -0.6
v -0.4 0.2 -0.6
v -0.4 0.3 -0.6
v -0.4 0.6 -0.6
v -0.4 0.7 -0.6
v -0.3 0.6 -0.6
v -0.3 0.7 -0.6
v -0.2 0.1 -0.6
v -0.2 0.3 -0.6
v -0.1 0.2 -0.6
v -0.1 0.3 -0.6
v 0 0.1 -0.6
v 0 0.2 -0.6
v 0.1 0.1 -0.6
v 0.1 0.2 -0.6
v 0.1 0.3 -0.6
v 0.3 0.1 -0.6
v 0.3 0.3 -0.6
v 0.4 0.2 -0.6
v 0.4 0.3 -0.6
v 0.5 0.1 -0.6
v 0.5 0.2 -0.6
v 0.6 0.1 -0.6
v 0.6 0.2 -0.6
v 0.6 0.3 -0.6
v 0.7 0.6 -0.6
v 0.7 0.7 -0.6
v 0.8 0.3 -0.6
v 0.8 0.4 -0.6
v 0.8 0.6 -0.6
v 0.8 0.7 -0.6
v -0.7 0.1 0.6
v -0.5 0.1 0.6
v -0.4 0.1 0.6
v -0.2 0.1 0.6
v 0 0.1 0.6
v 0.1 0.1 0.6
v 0.3 0.1 0.6
v 0.5 0.1 0.6
v 0.6 0.1 0.6
v -0.8 0.1 0.5
v -0.7 0.1 0.5
v -0.5 0.1 0.5
v -0.4 0.1 0.5
v -0.2 0.1 0.5
v 0 0.1 0.5
v 0.1 0.1 0.5
v 0.3 0.1 0.5
v 0.5 0.1 0.5
v 0.6 0.1 0.5
v 0.7 0.1 0.5
v -0.8 0.1 -0.5
v -0.7 0.1 -0.5
v -0.5 0.1 -0.5
v -0.4 0.1 -0.5
v -0.2 0.1 -0.5
v 0 0.1 -0.5
v 0.1 0.1 -0.5
v 0.3 0.1 -0.5
v 0.5 0.1 -0.5
v 0.6 0.1 -0.5
v 0.7 0.1 -0.5
v -0.7 0.1 -0.6
v -0.5 0.1 -0.6
v -0.4 0.1 -0.6
v -0.2 0.1 -0.6
v 0 0.1 -0.6
v 0.1 0.1 -0.6
v 0.3 0.1 -0.6
v 0.5 0.1 -0.6
v 0.6 0.1 -0.6
v -0.9 0.2 0.5
v -0.8 0.2 0.5
v 0.7 0.2 0.5
v 0.8 0.2 0.5
v -0.9 0.2 -0.5
v -0.8 0.2 -0.5
v 0.7 0.2 -0.5
v 0.8 0.2 -0.5
v -0.9 0.3 0.6
v -0.7 0.3 0.6
v -0.4 0.3 0.6
v -0.2 0.3 0.6
v 0.1 0.3 0.6
v 0.3 0.3 0.6
v 0.6 0.3 0.6
v 0.8 0.3 0.6
v -1 0.3 0.5
v -0.9 0.3 0.5
v -0.7 0.3 0.5
v -0.4 0.3 0.5
v -0.2 0.3 0.5
v 0.1 0.3 0.5
v 0.3 0.3 0.5
v 0.6 0.3 0.5
v 0.8 0.3 0.5
v 0.9 0.3 0.5
v 0.8 0.3 -0.4
v 0.9 0.3 -0.4
v -1 0.3 -0.5
v -0.9 0.3 -0.5
v -0.7 0.3 -0.5
v -0.4 0.3 -0.5
v -0.2 0.3 -0.5
v 0.1 0.3 -0.5
v 0.3 0.3 -0.5
v 0.6 0.3 -0.5
v 0.8 0.3 -0.5
v 0.9 0.3 -0.5
v -0.9 0.3 -0.6
v -0.7 0.3 -0.6
v -0.4 0.3 -0.6
v -0.2 0.3 -0.6
v 0.1 0.3 -0.6
v 0.3 0.3 -0.6
v 0.6 0.3 -0.6
v 0.8 0.3 -0.6
v -0.9 0.7 0.6
v -0.7 0.7 0.6
v -0.5 0.7 0.6
v -0.4 0.7 0.6
v 0.3 0.7 0.6
v 0.4 0.7 0.6
v 0.5 0.7 0.6
v 0.8 0.7 0.6
v -1 0.7 0.5
v -0.9 0.7 0.5
v -0.7 0.7 0.5
v -0.5 0.7 0.5
v -0.4 0.7 0.5
v 0.3 0.7 0.5
v 0.4 0.7 0.5
v 0.5 0.7 0.5
v 0.8 0.7 0.5
v 0.9 0.7 0.5
v 0.8 0.7 0.4
v 0.9 0.7 0.4
v 0.8 0.7 0.2
v 0.9 0.7 0.2
v 0.8 0.7 0.1
v 0.9 0.7 0.1
v 0.8 0.7 -0.4
v 0.9 0.7 -0.4
v -1 0.7 -0.5
v -0.9 0.7 -0.5
v -0.6 0.7 -0.5
v -0.4 0.7 -0.5
v -0.3 0.7 -0.5
v 0.7 0.7 -0.5
v 0.8 0.7 -0.5
v 0.9 0.7 -0.5
v -0.9 0.7 -0.6
v -0.6 0.7 -0.6
v -0.4 0.7 -0.6
v -0.3 0.7 -0.6
v 0.7 0.7 -0.6
v 0.8 0.7 -0.6

# faces
f 3/6/1 2/6/1 1/6/1
f 4/6/1 2/6/1 3/6/1
f 5/7/1 4/7/1 3/7/1
f 6/7/1 4/7/1 5/7/1
f 10/2/1 8/2/1 7/2/1
f 11/2/1 8/2/1 10/2/1
f 13/6/1 10/6/1 9/6/1
f 14/6/1 10/6/1 13/6/1
f 15/6/1 12/6/1 11/6/1
f 16/6/1 12/6/1 15/6/1
f 17/7/1 14/7/1 13/7/1
f 18/7/1 14/7/1 17/7/1
f 19/7/1 16/7/1 15/7/1
f 20/7/1 16/7/1 19/7/1
f 23/1/1 22/1/1 21/1/1
f 24/1/1 22/1/1 23/1/1
f 29/4/1 26/4/1 25/4/1
f 30/4/1 28/4/1 27/4/1
f 31/4/1 29/4/1 25/4/1
f 32/4/1 29/4/1 31/4/1
f 33/4/1 28/4/1 30/4/1
f 34/4/1 28/4/1 33/4/1
f 39/4/1 36/4/1 35/4/1
f 40/4/1 38/4/1 37/4/1
f 41/4/1 39/4/1 35/4/1
f 42/4/1 39/4/1 41/4/1
f 43/4/1 38/4/1 40/4/1
f 44/4/1 38/4/1 43/4/1
f 49/4/1 46/4/1 45/4/1
f 50/4/1 48/4/1 47/4/1
f 51/4/1 49/4/1 45/4/1
f 52/4/1 49/4/1 51/4/1
f 53/4/1 48/4/1 50/4/1
f 54/4/1 48/4/1 53/4/1
f 55/5/2 56/5/2 59/5/2
f 59/5/2 56/5/2 60/5/2
f 57/5/2 58/5/2 61/5/2
f 61/5/2 58/5/2 62/5/2
f 59/3/2 60/3/2 63/3/2
f 63/3/2 60/3/2 64/3/2
f 61/3/2 62/3/2 65/3/2
f 65/3/2 62/3/2 66/3/2
f 67/5/2 68/5/2 71/5/2
f 71/5/2 68/5/2 72/5/2
f 69/5/2 70/5/2 73/5/2
f 73/5/2 70/5/2 74/5/2
f 71/3/2 72/3/2 75/3/2
f 75/3/2 72/3/2 76/3/2
f 73/3/2 74/3/2 77/3/2
f 77/3/2 74/3/2 78/3/2
f 79/5/2 80/5/2 83/5/2
f 83/5/2 80/5/2 84/5/2
f 81/5/2 82/5/2 85/5/2
f 85/5/2 82/5/2 86/5/2
f 83/3/2 84/3/2 87/3/2
f 87/3/2 84/3/2 88/3/2
f 85/3/2 86/3/2 89/3/2
f 89/3/2 86/3/2 90/3/2
f 91/1/2 92/1/2 93/1/2
f 93/1/2 92/1/2 94/1/2
f 95/2/2 96/2/2 98/2/2
f 98/2/2 96/2/2 99/2/2
f 99/2/2 96/2/2 100/2/2
f 97/6/2 98/6/2 102/6/2
f 102/6/2 98/6/2 103/6/2
f 100/6/2 101/6/2 104/6/2
f 104/6/2 101/6/2 105/6/2
f 102/7/2 103/7/2 106/7/2
f 106/7/2 103/7/2 107/7/2
f 104/7/2 105/7/2 108/7/2
f 108/7/2 105/7/2 109/7/2
f 106/9/2 107/9/2 110/9/2
f 110/9/2 107/9/2 111/9/2
f 108/9/2 109/9/2 112/9/2
f 112/9/2 109/9/2 113/9/2
f 114/6/2 115/6/2 117/6/2
f 115/7/2 116/7/2 118/7/2
f 117/6/2 115/6/2 118/6/2
f 117/7/2 118/7/2 119/7/2
f 119/7/2 118/7/2 120/7/2
f 120/7/2 118/7/2 121/7/2
f 121/7/2 118/7/2 122/7/2
f 118/7/2 116/7/2 123/7/2
f 122/7/2 118/7/2 123/7/2
f 123/7/2 116/7/2 124/7/2
f 119/9/2 120/9/2 125/9/2
f 120/8/2 121/8/2 126/8/2
f 125/9/2 120/9/2 126/9/2
f 121/9/2 122/9/2 127/9/2
f 126/8/2 121/8/2 127/8/2
f 122/8/2 123/8/2 128/8/2
f 127/9/2 122/9/2 128/9/2
f 123/9/2 124/9/2 129/9/2
f 128/8/2 123/8/2 129/8/2
f 129/9/2 124/9/2 130/9/2
f 135/6/3 132/6/3 131/6/3
f 136/7/3 133/7/3 132/7/3
f 137/7/3 133/7/3 136/7/3
f 138/4/3 135/4/3 134/4/3
f 139/6/3 132/6/3 135/6/3
f 139/4/3 135/4/3 138/4/3
f 140/4/3 138/4/3 134/4/3
f 141/3/3 139/3/3 138/3/3
f 141/4/3 138/4/3 140/4/3
f 142/7/3 136/7/3 132/7/3
f 142/8/3 137/8/3 136/8/3
f 143/8/3 137/8/3 142/8/3
f 144/5/3 141/5/3 140/5/3
f 145/3/3 139/3/3 141/3/3
f 145/5/3 141/5/3 144/5/3
f 146/6/3 132/6/3 139/6/3
f 146/3/3 139/3/3 145/3/3
f 147/7/3 142/7/3 132/7/3
f 147/7/3 143/7/3 142/7/3
f 148/7/3 143/7/3 147/7/3
f 150/6/3 132/6/3 146/6/3
f 151/4/3 150/4/3 149/4/3
f 152/6/3 132/6/3 150/6/3
f 152/4/3 150/4/3 151/4/3
f 153/4/3 151/4/3 149/4/3
f 154/3/3 152/3/3 151/3/3
f 154/4/3 151/4/3 153/4/3
f 155/5/3 154/5/3 153/5/3
f 156/3/3 152/3/3 154/3/3
f 156/5/3 154/5/3 155/5/3
f 157/6/3 132/6/3 152/6/3
f 157/3/3 152/3/3 156/3/3
f 159/6/3 132/6/3 157/6/3
f 160/7/3 147/7/3 132/7/3
f 160/8/3 148/8/3 147/8/3
f 161/8/3 148/8/3 160/8/3
f 162/4/3 159/4/3 158/4/3
f 163/6/3 132/6/3 159/6/3
f 163/4/3 159/4/3 162/4/3
f 164/7/3 160/7/3 132/7/3
f 164/9/3 161/9/3 160/9/3
f 165/9/3 161/9/3 164/9/3
f 166/4/3 162/4/3 158/4/3
f 167/3/3 163/3/3 162/3/3
f 167/4/3 162/4/3 166/4/3
f 168/7/3 164/7/3 132/7/3
f 168/8/3 165/8/3 164/8/3
f 169/8/3 165/8/3 168/8/3
f 170/5/3 167/5/3 166/5/3
f 171/3/3 163/3/3 167/3/3
f 171/5/3 167/5/3 170/5/3
f 172/6/3 132/6/3 163/6/3
f 172/3/3 163/3/3 171/3/3
f 173/6/3 132/6/3 172/6/3
f 174/7/3 168/7/3 132/7/3
f 174/6/3 132/6/3 173/6/3
f 175/9/3 169/9/3 168/9/3
f 175/7/3 168/7/3 174/7/3
f 176/9/3 169/9/3 175/9/3
f 181/6/3 178/6/3 177/6/3
f 182/7/3 179/7/3 178/7/3
f 182/6/3 178/6/3 181/6/3
f 183/7/3 179/7/3 182/7/3
f 185/2/3 181/2/3 180/2/3
f 186/1/3 185/1/3 184/1/3
f 187/2/3 181/2/3 185/2/3
f 187/1/3 185/1/3 186/1/3
f 188/2/3 181/2/3 187/2/3
f 192/1/3 190/1/3 189/1/3
f 193/2/3 191/2/3 190/2/3
f 193/1/3 190/1/3 192/1/3
f 194/2/3 191/2/3 193/2/3
f 198/1/3 196/1/3 195/1/3
f 199/2/3 197/2/3 196/2/3
f 199/1/3 196/1/3 198/1/3
f 200/2/3 197/2/3 199/2/3
f 204/1/3 202/1/3 201/1/3
f 205/2/3 203/2/3 202/2/3
f 205/1/3 202/1/3 204/1/3
f 206/2/3 203/2/3 205/2/3
f 207/2/3 203/2/3 206/2/3
f 211/6/3 208/6/3 207/6/3
f 212/7/3 209/7/3 208/7/3
f 212/6/3 208/6/3 211/6/3
f 213/9/3 210/9/3 209/9/3
f 213/7/3 209/7/3 212/7/3
f 214/9/3 210/9/3 213/9/3
f 215/6/4 216/6/4 219/6/4
f 216/7/4 217/7/4 220/7/4
f 219/6/4 216/6/4 220/6/4
f 220/7/4 217/7/4 221/7/4
f 218/2/4 219/2/4 223/2/4
f 222/1/4 223/1/4 224/1/4
f 223/2/4 219/2/4 225/2/4
f 224/1/4 223/1/4 225/1/4
f 225/2/4 219/2/4 226/2/4
f 227/1/4 228/1/4 230/1/4
f 228/2/4 229/2/4 231/2/4
f 230/1/4 228/1/4 231/1/4
f 231/2/4 229/2/4 232/2/4
f 233/1/4 234/1/4 236/1/4
f 234/2/4 235/2/4 237/2/4
f 236/1/4 234/1/4 237/1/4
f 237/2/4 235/2/4 238/2/4
f 239/1/4 240/1/4 242/1/4
f 240/2/4 241/2/4 243/2/4
f 242/1/4 240/1/4 243/1/4
f 243/2/4 241/2/4 244/2/4
f 244/2/4 241/2/4 245/2/4
f 245/7/4 246/7/4 249/7/4
f 246/7/4 247/7/4 249/7/4
f 247/9/4 248/9/4 250/9/4
f 249/7/4 247/7/4 250/7/4
f 250/9/4 248/9/4 251/9/4
f 252/6/4 253/6/4 256/6/4
f 255/4/4 256/4/4 257/4/4
f 256/6/4 253/6/4 258/6/4
f 257/4/4 256/4/4 258/4/4
f 253/7/4 254/7/4 259/7/4
f 259/7/4 254/7/4 260/7/4
f 255/4/4 257/4/4 261/4/4
f 257/3/4 258/3/4 262/3/4
f 261/4/4 257/4/4 262/4/4
f 261/5/4 262/5/4 263/5/4
f 262/3/4 258/3/4 264/3/4
f 263/5/4 262/5/4 264/5/4
f 258/6/4 253/6/4 265/6/4
f 264/3/4 258/3/4 265/3/4
f 253/7/4 259/7/4 266/7/4
f 259/8/4 260/8/4 266/8/4
f 266/8/4 260/8/4 267/8/4
f 266/7/4 267/7/4 268/7/4
f 253/7/4 266/7/4 268/7/4
f 268/7/4 267/7/4 269/7/4
f 265/6/4 253/6/4 271/6/4
f 270/4/4 271/4/4 272/4/4
f 271/6/4 253/6/4 273/6/4
f 272/4/4 271/4/4 273/4/4
f 270/4/4 272/4/4 274/4/4
f 272/3/4 273/3/4 275/3/4
f 274/4/4 272/4/4 275/4/4
f 274/5/4 275/5/4 276/5/4
f 275/3/4 273/3/4 277/3/4
f 276/5/4 275/5/4 277/5/4
f 273/6/4 253/6/4 278/6/4
f 277/3/4 273/3/4 278/3/4
f 278/6/4 253/6/4 280/6/4
f 279/4/4 280/4/4 281/4/4
f 280/6/4 253/6/4 282/6/4
f 281/4/4 280/4/4 282/4/4
f 279/4/4 281/4/4 283/4/4
f 281/3/4 282/3/4 284/3/4
f 283/4/4 281/4/4 284/4/4
f 283/5/4 284/5/4 285/5/4
f 284/3/4 282/3/4 286/3/4
f 285/5/4 284/5/4 286/5/4
f 282/6/4 253/6/4 287/6/4
f 286/3/4 282/3/4 287/3/4
f 253/7/4 268/7/4 288/7/4
f 268/8/4 269/8/4 288/8/4
f 288/8/4 269/8/4 289/8/4
f 287/6/4 253/6/4 290/6/4
f 253/7/4 288/7/4 291/7/4
f 290/6/4 253/6/4 291/6/4
f 288/9/4 289/9/4 292/9/4
f 291/7/4 288/7/4 292/7/4
f 292/9/4 289/9/4 293/9/4
f 304/4/5 295/4/5 294/4/5
f 305/5/5 296/5/5 295/5/5
f 305/4/5 295/4/5 304/4/5
f 306/5/5 296/5/5 305/5/5
f 307/4/5 298/4/5 297/4/5
f 308/5/5 299/5/5 298/5/5
f 308/4/5 298/4/5 307/4/5
f 309/5/5 299/5/5 308/5/5
f 310/4/5 301/4/5 300/4/5
f 311/5/5 302/5/5 301/5/5
f 311/4/5 301/4/5 310/4/5
f 312/5/5 302/5/5 311/5/5
f 314/1/5 310/1/5 309/1/5
f 314/1/5 313/1/5 312/1/5
f 314/1/5 312/1/5 311/1/5
f 314/1/5 311/1/5 310/1/5
f 314/1/5 304/1/5 303/1/5
f 314/1/5 308/1/5 307/1/5
f 314/1/5 306/1/5 305/1/5
f 314/1/5 305/1/5 304/1/5
f 314/1/5 307/1/5 306/1/5
f 314/1/5 309/1/5 308/1/5
f 315/1/5 313/1/5 314/1/5
f 316/1/5 313/1/5 315/1/5
f 317/1/5 313/1/5 316/1/5
f 318/1/5 313/1/5 317/1/5
f 319/1/5 313/1/5 318/1/5
f 320/1/5 313/1/5 319/1/5
f 321/1/5 313/1/5 320/1/5
f 322/1/5 313/1/5 321/1/5
f 323/1/5 313/1/5 322/1/5
f 324/1/5 313/1/5 323/1/5
f 325/4/5 316/4/5 315/4/5
f 326/5/5 317/5/5 316/5/5
f 326/4/5 316/4/5 325/4/5
f 327/5/5 317/5/5 326/5/5
f 328/4/5 319/4/5 318/4/5
f 329/5/5 320/5/5 319/5/5
f 329/4/5 319/4/5 328/4/5
f 330/5/5 320/5/5 329/5/5
f 331/4/5 322/4/5 321/4/5
f 332/5/5 323/5/5 322/5/5
f 332/4/5 322/4/5 331/4/5
f 333/5/5 323/5/5 332/5/5
f 338/2/5 335/2/5 334/2/5
f 339/2/5 335/2/5 338/2/5
f 340/2/5 337/2/5 336/2/5
f 341/2/5 337/2/5 340/2/5
f 351/6/5 343/6/5 342/6/5
f 352/6/5 343/6/5 351/6/5
f 353/6/5 345/6/5 344/6/5
f 354/6/5 345/6/5 353/6/5
f 355/6/5 347/6/5 346/6/5
f 356/6/5 347/6/5 355/6/5
f 357/6/5 349/6/5 348/6/5
f 358/6/5 349/6/5 357/6/5
f 360/6/5 359/6/5 358/6/5
f 361/6/5 359/6/5 360/6/5
f 362/6/5 351/6/5 350/6/5
f 363/6/5 351/6/5 362/6/5
f 370/7/5 361/7/5 360/7/5
f 371/7/5 361/7/5 370/7/5
f 372/6/5 364/6/5 363/6/5
f 373/6/5 364/6/5 372/6/5
f 374/6/5 366/6/5 365/6/5
f 375/6/5 366/6/5 374/6/5
f 376/6/5 368/6/5 367/6/5
f 377/6/5 368/6/5 376/6/5
f 378/6/5 370/6/5 369/6/5
f 379/6/5 370/6/5 378/6/5
f 380/7/6 381/7/6 389/7/6
f 381/8/6 382/8/6 390/8/6
f 389/7/6 381/7/6 390/7/6
f 382/7/6 383/7/6 391/7/6
f 390/8/6 382/8/6 391/8/6
f 383/8/6 384/8/6 392/8/6
f 391/7/6 383/7/6 392/7/6
f 384/9/6 385/9/6 393/9/6
f 392/8/6 384/8/6 393/8/6
f 385/8/6 386/8/6 394/8/6
f 393/9/6 385/9/6 394/9/6
f 386/9/6 387/9/6 395/9/6
f 394/8/6 386/8/6 395/8/6
f 395/9/6 387/9/6 396/9/6
f 393/7/6 394/7/6 398/7/6
f 396/9/6 397/9/6 398/9/6
f 395/7/6 396/7/6 398/7/6
f 394/7/6 395/7/6 398/7/6
f 388/7/6 389/7/6 398/7/6
f 392/7/6 393/7/6 398/7/6
f 391/7/6 392/7/6 398/7/6
f 390/7/6 391/7/6 398/7/6
f 389/7/6 390/7/6 398/7/6
f 398/9/6 397/9/6 399/9/6
f 388/7/6 398/7/6 400/7/6
f 398/8/6 399/8/6 400/8/6
f 400/8/6 399/8/6 401/8/6
f 388/7/6 400/7/6 402/7/6
f 400/9/6 401/9/6 402/9/6
f 402/9/6 401/9/6 403/9/6
f 388/7/6 402/7/6 404/7/6
f 402/8/6 403/8/6 404/8/6
f 404/8/6 403/8/6 405/8/6
f 388/7/6 404/7/6 406/7/6
f 406/7/6 404/7/6 407/7/6
f 407/7/6 404/7/6 408/7/6
f 408/7/6 404/7/6 409/7/6
f 409/7/6 404/7/6 410/7/6
f 410/7/6 404/7/6 411/7/6
f 404/9/6 405/9/6 412/9/6
f 411/7/6 404/7/6 412/7/6
f 412/9/6 405/9/6 413/9/6
f 407/7/6 408/7/6 414/7/6
f 408/8/6 409/8/6 415/8/6
f 414/7/6 408/7/6 415/7/6
f 409/7/6 410/7/6 416/7/6
f 415/8/6 409/8/6 416/8/6
f 410/8/6 411/8/6 417/8/6
f 416/7/6 410/7/6 417/7/6
f 411/9/6 412/9/6 418/9/6
f 417/8/6 411/8/6 418/8/6
f 418/9/6 412/9/6 419/9/6
