# MagicaVoxel @ Ephtracy

# group
o Road

# material
mtllib 0-0-Road.mtl
usemtl palette

# normals
vn -1 0 0
vn 1 0 0
vn 0 0 1
vn 0 0 -1
vn 0 -1 0
vn 0 1 0

# texcoords
vt 0.658203 0.5
vt 0.662109 0.5
vt 0.666016 0.5
vt 0.669922 0.5

# verts
v -1 -0.05 1
v -1 -0.05 0.9
v -1 -0.05 0.8
v -1 -0.05 0.7
v -1 -0.05 -0.7
v -1 -0.05 -0.8
v -1 -0.05 -0.9
v -1 -0.05 -1
v -1 0.05 1
v -1 0.05 0.9
v -1 0.05 0.8
v -1 0.05 0.7
v -1 0.05 -0.7
v -1 0.05 -0.8
v -1 0.05 -0.9
v -1 0.05 -1
v 1 -0.05 1
v 1 -0.05 0.9
v 1 -0.05 0.8
v 1 -0.05 0.7
v 1 -0.05 -0.7
v 1 -0.05 -0.8
v 1 -0.05 -0.9
v 1 -0.05 -1
v 1 0.05 1
v 1 0.05 0.9
v 1 0.05 0.8
v 1 0.05 0.7
v 1 0.05 -0.7
v 1 0.05 -0.8
v 1 0.05 -0.9
v 1 0.05 -1
v -1 -0.05 1
v -1 0.05 1
v 1 -0.05 1
v 1 0.05 1
v -1 -0.05 -1
v -1 0.05 -1
v 1 -0.05 -1
v 1 0.05 -1
v -1 -0.05 1
v 1 -0.05 1
v -1 -0.05 0.9
v -0.9 -0.05 0.9
v 0.9 -0.05 0.9
v 1 -0.05 0.9
v -1 -0.05 0.8
v -0.9 -0.05 0.8
v 0.9 -0.05 0.8
v 1 -0.05 0.8
v -1 -0.05 0.7
v -0.9 -0.05 0.7
v 0.9 -0.05 0.7
v 1 -0.05 0.7
v -0.8 -0.05 0.2
v -0.2 -0.05 0.2
v 0.2 -0.05 0.2
v 0.8 -0.05 0.2
v -0.8 -0.05 -0.1
v -0.2 -0.05 -0.1
v 0.2 -0.05 -0.1
v 0.8 -0.05 -0.1
v -1 -0.05 -0.7
v -0.9 -0.05 -0.7
v 0.9 -0.05 -0.7
v 1 -0.05 -0.7
v -1 -0.05 -0.8
v -0.9 -0.05 -0.8
v 0.9 -0.05 -0.8
v 1 -0.05 -0.8
v -1 -0.05 -0.9
v -0.9 -0.05 -0.9
v 0.9 -0.05 -0.9
v 1 -0.05 -0.9
v -1 -0.05 -1
v 1 -0.05 -1
v -1 0.05 1
v 1 0.05 1
v -1 0.05 0.9
v -0.9 0.05 0.9
v 0.9 0.05 0.9
v 1 0.05 0.9
v -1 0.05 0.8
v -0.9 0.05 0.8
v 0.9 0.05 0.8
v 1 0.05 0.8
v -1 0.05 0.7
v -0.9 0.05 0.7
v 0.9 0.05 0.7
v 1 0.05 0.7
v -0.8 0.05 0.2
v -0.2 0.05 0.2
v 0.2 0.05 0.2
v 0.8 0.05 0.2
v -0.8 0.05 -0.1
v -0.2 0.05 -0.1
v 0.2 0.05 -0.1
v 0.8 0.05 -0.1
v -1 0.05 -0.7
v -0.9 0.05 -0.7
v 0.9 0.05 -0.7
v 1 0.05 -0.7
v -1 0.05 -0.8
v -0.9 0.05 -0.8
v 0.9 0.05 -0.8
v 1 0.05 -0.8
v -1 0.05 -0.9
v -0.9 0.05 -0.9
v 0.9 0.05 -0.9
v 1 0.05 -0.9
v -1 0.05 -1
v 1 0.05 -1

# faces
f 9/1/1 2/1/1 1/1/1
f 10/2/1 3/2/1 2/2/1
f 10/1/1 2/1/1 9/1/1
f 11/4/1 4/4/1 3/4/1
f 11/2/1 3/2/1 10/2/1
f 12/2/1 5/2/1 4/2/1
f 12/4/1 4/4/1 11/4/1
f 13/4/1 6/4/1 5/4/1
f 13/2/1 5/2/1 12/2/1
f 14/2/1 7/2/1 6/2/1
f 14/4/1 6/4/1 13/4/1
f 15/1/1 8/1/1 7/1/1
f 15/2/1 7/2/1 14/2/1
f 16/1/1 8/1/1 15/1/1
f 17/1/2 18/1/2 25/1/2
f 18/2/2 19/2/2 26/2/2
f 25/1/2 18/1/2 26/1/2
f 19/4/2 20/4/2 27/4/2
f 26/2/2 19/2/2 27/2/2
f 20/2/2 21/2/2 28/2/2
f 27/4/2 20/4/2 28/4/2
f 21/4/2 22/4/2 29/4/2
f 28/2/2 21/2/2 29/2/2
f 22/2/2 23/2/2 30/2/2
f 29/4/2 22/4/2 30/4/2
f 23/1/2 24/1/2 31/1/2
f 30/2/2 23/2/2 31/2/2
f 31/1/2 24/1/2 32/1/2
f 35/1/3 34/1/3 33/1/3
f 36/1/3 34/1/3 35/1/3
f 37/1/4 38/1/4 39/1/4
f 39/1/4 38/1/4 40/1/4
f 43/1/5 42/1/5 41/1/5
f 44/1/5 42/1/5 43/1/5
f 45/1/5 42/1/5 44/1/5
f 46/1/5 42/1/5 45/1/5
f 47/2/5 44/2/5 43/2/5
f 48/3/5 45/3/5 44/3/5
f 48/2/5 44/2/5 47/2/5
f 49/2/5 46/2/5 45/2/5
f 49/3/5 45/3/5 48/3/5
f 50/2/5 46/2/5 49/2/5
f 51/4/5 48/4/5 47/4/5
f 51/4/5 49/4/5 48/4/5
f 51/4/5 50/4/5 49/4/5
f 52/4/5 50/4/5 51/4/5
f 53/4/5 50/4/5 52/4/5
f 54/4/5 50/4/5 53/4/5
f 55/3/5 53/3/5 52/3/5
f 56/3/5 53/3/5 55/3/5
f 57/3/5 53/3/5 56/3/5
f 58/3/5 53/3/5 57/3/5
f 59/3/5 55/3/5 52/3/5
f 59/4/5 56/4/5 55/4/5
f 60/3/5 57/3/5 56/3/5
f 60/4/5 56/4/5 59/4/5
f 61/4/5 58/4/5 57/4/5
f 61/3/5 57/3/5 60/3/5
f 62/3/5 53/3/5 58/3/5
f 62/4/5 58/4/5 61/4/5
f 63/2/5 52/2/5 51/2/5
f 64/3/5 61/3/5 60/3/5
f 64/2/5 52/2/5 63/2/5
f 64/3/5 60/3/5 59/3/5
f 64/3/5 62/3/5 61/3/5
f 64/3/5 59/3/5 52/3/5
f 65/3/5 53/3/5 62/3/5
f 65/3/5 62/3/5 64/3/5
f 65/2/5 54/2/5 53/2/5
f 66/2/5 54/2/5 65/2/5
f 67/4/5 64/4/5 63/4/5
f 67/4/5 65/4/5 64/4/5
f 67/4/5 66/4/5 65/4/5
f 68/4/5 66/4/5 67/4/5
f 69/4/5 66/4/5 68/4/5
f 70/4/5 66/4/5 69/4/5
f 71/2/5 68/2/5 67/2/5
f 72/3/5 69/3/5 68/3/5
f 72/2/5 68/2/5 71/2/5
f 73/2/5 70/2/5 69/2/5
f 73/3/5 69/3/5 72/3/5
f 74/2/5 70/2/5 73/2/5
f 75/1/5 72/1/5 71/1/5
f 75/1/5 73/1/5 72/1/5
f 75/1/5 74/1/5 73/1/5
f 76/1/5 74/1/5 75/1/5
f 77/1/6 78/1/6 79/1/6
f 79/1/6 78/1/6 80/1/6
f 80/1/6 78/1/6 81/1/6
f 81/1/6 78/1/6 82/1/6
f 79/2/6 80/2/6 83/2/6
f 80/3/6 81/3/6 84/3/6
f 83/2/6 80/2/6 84/2/6
f 81/2/6 82/2/6 85/2/6
f 84/3/6 81/3/6 85/3/6
f 85/2/6 82/2/6 86/2/6
f 83/4/6 84/4/6 87/4/6
f 84/4/6 85/4/6 87/4/6
f 85/4/6 86/4/6 87/4/6
f 87/4/6 86/4/6 88/4/6
f 88/4/6 86/4/6 89/4/6
f 89/4/6 86/4/6 90/4/6
f 88/3/6 89/3/6 91/3/6
f 91/3/6 89/3/6 92/3/6
f 92/3/6 89/3/6 93/3/6
f 93/3/6 89/3/6 94/3/6
f 88/3/6 91/3/6 95/3/6
f 91/4/6 92/4/6 95/4/6
f 92/3/6 93/3/6 96/3/6
f 95/4/6 92/4/6 96/4/6
f 93/4/6 94/4/6 97/4/6
f 96/3/6 93/3/6 97/3/6
f 94/3/6 89/3/6 98/3/6
f 97/4/6 94/4/6 98/4/6
f 87/2/6 88/2/6 99/2/6
f 96/3/6 97/3/6 100/3/6
f 99/2/6 88/2/6 100/2/6
f 95/3/6 96/3/6 100/3/6
f 97/3/6 98/3/6 100/3/6
f 88/3/6 95/3/6 100/3/6
f 98/3/6 89/3/6 101/3/6
f 100/3/6 98/3/6 101/3/6
f 89/2/6 90/2/6 101/2/6
f 101/2/6 90/2/6 102/2/6
f 99/4/6 100/4/6 103/4/6
f 100/4/6 101/4/6 103/4/6
f 101/4/6 102/4/6 103/4/6
f 103/4/6 102/4/6 104/4/6
f 104/4/6 102/4/6 105/4/6
f 105/4/6 102/4/6 106/4/6
f 103/2/6 104/2/6 107/2/6
f 104/3/6 105/3/6 108/3/6
f 107/2/6 104/2/6 108/2/6
f 105/2/6 106/2/6 109/2/6
f 108/3/6 105/3/6 109/3/6
f 109/2/6 106/2/6 110/2/6
f 107/1/6 108/1/6 111/1/6
f 108/1/6 109/1/6 111/1/6
f 109/1/6 110/1/6 111/1/6
f 111/1/6 110/1/6 112/1/6
