# MagicaVoxel @ Ephtracy

# group
o Road_Corner

# material
mtllib 0-1-Road_Corner.mtl
usemtl palette

# normals
vn -1 0 0
vn 1 0 0
vn 0 0 1
vn 0 0 -1
vn 0 -1 0
vn 0 1 0

# texcoords
vt 0.658203 0.5
vt 0.662109 0.5
vt 0.666016 0.5
vt 0.669922 0.5

# verts
v -1 -0.05 1
v -1 -0.05 0.9
v -1 -0.05 0.8
v -1 -0.05 0.7
v -1 -0.05 -0.7
v -1 -0.05 -0.8
v -1 -0.05 -0.9
v -1 -0.05 -1
v -1 0.05 1
v -1 0.05 0.9
v -1 0.05 0.8
v -1 0.05 0.7
v -1 0.05 -0.7
v -1 0.05 -0.8
v -1 0.05 -0.9
v -1 0.05 -1
v 0.5 -0.05 -0.9
v 0.5 -0.05 -1
v 0.5 0.05 -0.9
v 0.5 0.05 -1
v 0.7 -0.05 -0.8
v 0.7 -0.05 -0.9
v 0.7 0.05 -0.8
v 0.7 0.05 -0.9
v 0.8 -0.05 -0.7
v 0.8 -0.05 -0.8
v 0.8 0.05 -0.7
v 0.8 0.05 -0.8
v 0.9 -0.05 -0.5
v 0.9 -0.05 -0.7
v 0.9 0.05 -0.5
v 0.9 0.05 -0.7
v 1 -0.05 1
v 1 -0.05 -0.5
v 1 0.05 1
v 1 0.05 -0.5
v -1 -0.05 1
v -1 0.05 1
v -0.9 -0.05 1
v -0.9 0.05 1
v -0.8 -0.05 1
v -0.8 0.05 1
v -0.7 -0.05 1
v -0.7 0.05 1
v 0.7 -0.05 1
v 0.7 0.05 1
v 0.8 -0.05 1
v 0.8 0.05 1
v 0.9 -0.05 1
v 0.9 0.05 1
v 1 -0.05 1
v 1 0.05 1
v 0.9 -0.05 -0.5
v 0.9 0.05 -0.5
v 1 -0.05 -0.5
v 1 0.05 -0.5
v 0.8 -0.05 -0.7
v 0.8 0.05 -0.7
v 0.9 -0.05 -0.7
v 0.9 0.05 -0.7
v 0.7 -0.05 -0.8
v 0.7 0.05 -0.8
v 0.8 -0.05 -0.8
v 0.8 0.05 -0.8
v 0.5 -0.05 -0.9
v 0.5 0.05 -0.9
v 0.7 -0.05 -0.9
v 0.7 0.05 -0.9
v -1 -0.05 -1
v -1 0.05 -1
v 0.5 -0.05 -1
v 0.5 0.05 -1
v -1 -0.05 1
v -0.9 -0.05 1
v -0.8 -0.05 1
v -0.7 -0.05 1
v 0.7 -0.05 1
v 0.8 -0.05 1
v 0.9 -0.05 1
v 1 -0.05 1
v -1 -0.05 0.9
v -0.9 -0.05 0.9
v -0.8 -0.05 0.9
v -0.7 -0.05 0.9
v 0.7 -0.05 0.9
v 0.8 -0.05 0.9
v 0.9 -0.05 0.9
v -1 -0.05 0.8
v -0.9 -0.05 0.8
v -0.8 -0.05 0.8
v -0.7 -0.05 0.8
v -0.2 -0.05 0.8
v 0.1 -0.05 0.8
v -1 -0.05 0.7
v -0.9 -0.05 0.7
v -0.8 -0.05 0.7
v -0.2 -0.05 0.3
v 0.1 -0.05 0.3
v -0.8 -0.05 0.2
v -0.2 -0.05 0.2
v -0.8 -0.05 -0.1
v -0.2 -0.05 -0.1
v 0.6 -0.05 -0.4
v 0.7 -0.05 -0.4
v 0.8 -0.05 -0.4
v 0.8 -0.05 -0.5
v 0.9 -0.05 -0.5
v 1 -0.05 -0.5
v 0.4 -0.05 -0.6
v 0.6 -0.05 -0.6
v 0.7 -0.05 -0.6
v -1 -0.05 -0.7
v -0.9 -0.05 -0.7
v 0.4 -0.05 -0.7
v 0.6 -0.05 -0.7
v 0.7 -0.05 -0.7
v 0.8 -0.05 -0.7
v 0.9 -0.05 -0.7
v -1 -0.05 -0.8
v -0.9 -0.05 -0.8
v 0.4 -0.05 -0.8
v 0.5 -0.05 -0.8
v 0.7 -0.05 -0.8
v 0.8 -0.05 -0.8
v -1 -0.05 -0.9
v -0.9 -0.05 -0.9
v 0.5 -0.05 -0.9
v 0.7 -0.05 -0.9
v -1 -0.05 -1
v 0.5 -0.05 -1
v -1 0.05 1
v -0.9 0.05 1
v -0.8 0.05 1
v -0.7 0.05 1
v 0.7 0.05 1
v 0.8 0.05 1
v 0.9 0.05 1
v 1 0.05 1
v -1 0.05 0.9
v -0.9 0.05 0.9
v -0.8 0.05 0.9
v -0.7 0.05 0.9
v 0.7 0.05 0.9
v 0.8 0.05 0.9
v 0.9 0.05 0.9
v -1 0.05 0.8
v -0.9 0.05 0.8
v -0.8 0.05 0.8
v -0.7 0.05 0.8
v -0.2 0.05 0.8
v 0.1 0.05 0.8
v -1 0.05 0.7
v -0.9 0.05 0.7
v -0.8 0.05 0.7
v -0.2 0.05 0.3
v 0.1 0.05 0.3
v -0.8 0.05 0.2
v -0.2 0.05 0.2
v -0.8 0.05 -0.1
v -0.2 0.05 -0.1
v 0.6 0.05 -0.4
v 0.7 0.05 -0.4
v 0.8 0.05 -0.4
v 0.8 0.05 -0.5
v 0.9 0.05 -0.5
v 1 0.05 -0.5
v 0.4 0.05 -0.6
v 0.6 0.05 -0.6
v 0.7 0.05 -0.6
v -1 0.05 -0.7
v -0.9 0.05 -0.7
v 0.4 0.05 -0.7
v 0.6 0.05 -0.7
v 0.7 0.05 -0.7
v 0.8 0.05 -0.7
v 0.9 0.05 -0.7
v -1 0.05 -0.8
v -0.9 0.05 -0.8
v 0.4 0.05 -0.8
v 0.5 0.05 -0.8
v 0.7 0.05 -0.8
v 0.8 0.05 -0.8
v -1 0.05 -0.9
v -0.9 0.05 -0.9
v 0.5 0.05 -0.9
v 0.7 0.05 -0.9
v -1 0.05 -1
v 0.5 0.05 -1

# faces
f 9/1/1 2/1/1 1/1/1
f 10/2/1 3/2/1 2/2/1
f 10/1/1 2/1/1 9/1/1
f 11/4/1 4/4/1 3/4/1
f 11/2/1 3/2/1 10/2/1
f 12/2/1 5/2/1 4/2/1
f 12/4/1 4/4/1 11/4/1
f 13/4/1 6/4/1 5/4/1
f 13/2/1 5/2/1 12/2/1
f 14/2/1 7/2/1 6/2/1
f 14/4/1 6/4/1 13/4/1
f 15/1/1 8/1/1 7/1/1
f 15/2/1 7/2/1 14/2/1
f 16/1/1 8/1/1 15/1/1
f 17/1/2 18/1/2 19/1/2
f 19/1/2 18/1/2 20/1/2
f 21/1/2 22/1/2 23/1/2
f 23/1/2 22/1/2 24/1/2
f 25/1/2 26/1/2 27/1/2
f 27/1/2 26/1/2 28/1/2
f 29/1/2 30/1/2 31/1/2
f 31/1/2 30/1/2 32/1/2
f 33/1/2 34/1/2 35/1/2
f 35/1/2 34/1/2 36/1/2
f 39/1/3 38/1/3 37/1/3
f 40/1/3 38/1/3 39/1/3
f 41/2/3 40/2/3 39/2/3
f 42/2/3 40/2/3 41/2/3
f 43/4/3 42/4/3 41/4/3
f 44/4/3 42/4/3 43/4/3
f 45/2/3 44/2/3 43/2/3
f 46/2/3 44/2/3 45/2/3
f 47/4/3 46/4/3 45/4/3
f 48/4/3 46/4/3 47/4/3
f 49/2/3 48/2/3 47/2/3
f 50/2/3 48/2/3 49/2/3
f 51/1/3 50/1/3 49/1/3
f 52/1/3 50/1/3 51/1/3
f 53/1/4 54/1/4 55/1/4
f 55/1/4 54/1/4 56/1/4
f 57/1/4 58/1/4 59/1/4
f 59/1/4 58/1/4 60/1/4
f 61/1/4 62/1/4 63/1/4
f 63/1/4 62/1/4 64/1/4
f 65/1/4 66/1/4 67/1/4
f 67/1/4 66/1/4 68/1/4
f 69/1/4 70/1/4 71/1/4
f 71/1/4 70/1/4 72/1/4
f 81/1/5 74/1/5 73/1/5
f 82/2/5 75/2/5 74/2/5
f 82/1/5 74/1/5 81/1/5
f 83/4/5 76/4/5 75/4/5
f 83/2/5 75/2/5 82/2/5
f 84/2/5 77/2/5 76/2/5
f 84/4/5 76/4/5 83/4/5
f 85/4/5 78/4/5 77/4/5
f 85/2/5 77/2/5 84/2/5
f 86/2/5 79/2/5 78/2/5
f 86/4/5 78/4/5 85/4/5
f 87/1/5 80/1/5 79/1/5
f 87/2/5 79/2/5 86/2/5
f 88/2/5 82/2/5 81/2/5
f 89/3/5 83/3/5 82/3/5
f 89/2/5 82/2/5 88/2/5
f 90/4/5 84/4/5 83/4/5
f 90/3/5 83/3/5 89/3/5
f 91/3/5 85/3/5 84/3/5
f 91/4/5 84/4/5 90/4/5
f 92/3/5 85/3/5 91/3/5
f 93/3/5 85/3/5 92/3/5
f 94/4/5 89/4/5 88/4/5
f 94/4/5 90/4/5 89/4/5
f 95/4/5 90/4/5 94/4/5
f 96/3/5 91/3/5 90/3/5
f 96/4/5 90/4/5 95/4/5
f 96/3/5 92/3/5 91/3/5
f 97/4/5 93/4/5 92/4/5
f 97/3/5 92/3/5 96/3/5
f 97/3/5 96/3/5 95/3/5
f 98/3/5 85/3/5 93/3/5
f 98/4/5 93/4/5 97/4/5
f 99/3/5 97/3/5 95/3/5
f 99/3/5 98/3/5 97/3/5
f 100/3/5 98/3/5 99/3/5
f 101/3/5 99/3/5 95/3/5
f 101/4/5 100/4/5 99/4/5
f 102/3/5 98/3/5 100/3/5
f 102/4/5 100/4/5 101/4/5
f 103/3/5 85/3/5 98/3/5
f 103/3/5 98/3/5 102/3/5
f 103/3/5 102/3/5 101/3/5
f 104/4/5 86/4/5 85/4/5
f 104/3/5 85/3/5 103/3/5
f 105/3/5 87/3/5 86/3/5
f 105/4/5 86/4/5 104/4/5
f 106/3/5 105/3/5 104/3/5
f 106/3/5 87/3/5 105/3/5
f 107/1/5 80/1/5 87/1/5
f 107/3/5 87/3/5 106/3/5
f 108/1/5 80/1/5 107/1/5
f 109/3/5 103/3/5 101/3/5
f 110/4/5 104/4/5 103/4/5
f 110/3/5 103/3/5 109/3/5
f 111/3/5 106/3/5 104/3/5
f 111/4/5 104/4/5 110/4/5
f 112/2/5 95/2/5 94/2/5
f 113/3/5 101/3/5 95/3/5
f 113/2/5 95/2/5 112/2/5
f 113/3/5 109/3/5 101/3/5
f 114/4/5 110/4/5 109/4/5
f 114/3/5 109/3/5 113/3/5
f 115/3/5 111/3/5 110/3/5
f 115/4/5 110/4/5 114/4/5
f 116/3/5 106/3/5 111/3/5
f 116/3/5 111/3/5 115/3/5
f 117/1/5 107/1/5 106/1/5
f 117/3/5 106/3/5 116/3/5
f 118/1/5 107/1/5 117/1/5
f 119/4/5 113/4/5 112/4/5
f 119/4/5 114/4/5 113/4/5
f 120/4/5 114/4/5 119/4/5
f 121/3/5 115/3/5 114/3/5
f 121/4/5 114/4/5 120/4/5
f 121/3/5 116/3/5 115/3/5
f 122/3/5 116/3/5 121/3/5
f 123/1/5 117/1/5 116/1/5
f 123/3/5 116/3/5 122/3/5
f 124/1/5 117/1/5 123/1/5
f 125/2/5 120/2/5 119/2/5
f 126/3/5 122/3/5 121/3/5
f 126/2/5 120/2/5 125/2/5
f 126/3/5 121/3/5 120/3/5
f 127/1/5 123/1/5 122/1/5
f 127/3/5 122/3/5 126/3/5
f 128/1/5 123/1/5 127/1/5
f 129/1/5 126/1/5 125/1/5
f 129/1/5 127/1/5 126/1/5
f 130/1/5 127/1/5 129/1/5
f 131/1/6 132/1/6 139/1/6
f 132/2/6 133/2/6 140/2/6
f 139/1/6 132/1/6 140/1/6
f 133/4/6 134/4/6 141/4/6
f 140/2/6 133/2/6 141/2/6
f 134/2/6 135/2/6 142/2/6
f 141/4/6 134/4/6 142/4/6
f 135/4/6 136/4/6 143/4/6
f 142/2/6 135/2/6 143/2/6
f 136/2/6 137/2/6 144/2/6
f 143/4/6 136/4/6 144/4/6
f 137/1/6 138/1/6 145/1/6
f 144/2/6 137/2/6 145/2/6
f 139/2/6 140/2/6 146/2/6
f 140/3/6 141/3/6 147/3/6
f 146/2/6 140/2/6 147/2/6
f 141/4/6 142/4/6 148/4/6
f 147/3/6 141/3/6 148/3/6
f 142/3/6 143/3/6 149/3/6
f 148/4/6 142/4/6 149/4/6
f 149/3/6 143/3/6 150/3/6
f 150/3/6 143/3/6 151/3/6
f 146/4/6 147/4/6 152/4/6
f 147/4/6 148/4/6 152/4/6
f 152/4/6 148/4/6 153/4/6
f 148/3/6 149/3/6 154/3/6
f 153/4/6 148/4/6 154/4/6
f 149/3/6 150/3/6 154/3/6
f 150/4/6 151/4/6 155/4/6
f 154/3/6 150/3/6 155/3/6
f 153/3/6 154/3/6 155/3/6
f 151/3/6 143/3/6 156/3/6
f 155/4/6 151/4/6 156/4/6
f 153/3/6 155/3/6 157/3/6
f 155/3/6 156/3/6 157/3/6
f 157/3/6 156/3/6 158/3/6
f 153/3/6 157/3/6 159/3/6
f 157/4/6 158/4/6 159/4/6
f 158/3/6 156/3/6 160/3/6
f 159/4/6 158/4/6 160/4/6
f 156/3/6 143/3/6 161/3/6
f 160/3/6 156/3/6 161/3/6
f 159/3/6 160/3/6 161/3/6
f 143/4/6 144/4/6 162/4/6
f 161/3/6 143/3/6 162/3/6
f 144/3/6 145/3/6 163/3/6
f 162/4/6 144/4/6 163/4/6
f 162/3/6 163/3/6 164/3/6
f 163/3/6 145/3/6 164/3/6
f 145/1/6 138/1/6 165/1/6
f 164/3/6 145/3/6 165/3/6
f 165/1/6 138/1/6 166/1/6
f 159/3/6 161/3/6 167/3/6
f 161/4/6 162/4/6 168/4/6
f 167/3/6 161/3/6 168/3/6
f 162/3/6 164/3/6 169/3/6
f 168/4/6 162/4/6 169/4/6
f 152/2/6 153/2/6 170/2/6
f 153/3/6 159/3/6 171/3/6
f 170/2/6 153/2/6 171/2/6
f 159/3/6 167/3/6 171/3/6
f 167/4/6 168/4/6 172/4/6
f 171/3/6 167/3/6 172/3/6
f 168/3/6 169/3/6 173/3/6
f 172/4/6 168/4/6 173/4/6
f 169/3/6 164/3/6 174/3/6
f 173/3/6 169/3/6 174/3/6
f 164/1/6 165/1/6 175/1/6
f 174/3/6 164/3/6 175/3/6
f 175/1/6 165/1/6 176/1/6
f 170/4/6 171/4/6 177/4/6
f 171/4/6 172/4/6 177/4/6
f 177/4/6 172/4/6 178/4/6
f 172/3/6 173/3/6 179/3/6
f 178/4/6 172/4/6 179/4/6
f 173/3/6 174/3/6 179/3/6
f 179/3/6 174/3/6 180/3/6
f 174/1/6 175/1/6 181/1/6
f 180/3/6 174/3/6 181/3/6
f 181/1/6 175/1/6 182/1/6
f 177/2/6 178/2/6 183/2/6
f 179/3/6 180/3/6 184/3/6
f 183/2/6 178/2/6 184/2/6
f 178/3/6 179/3/6 184/3/6
f 180/1/6 181/1/6 185/1/6
f 184/3/6 180/3/6 185/3/6
f 185/1/6 181/1/6 186/1/6
f 183/1/6 184/1/6 187/1/6
f 184/1/6 185/1/6 187/1/6
f 187/1/6 185/1/6 188/1/6
